<svg xmlns="http://www.w3.org/2000/svg" width="200" height="40" viewBox="0,0,200,40"><path fill="#333" d="M169.65 34.76L169.75 34.87L169.72 34.84Q167.84 34.86 165.82 35.05L165.76 34.99L165.78 35.01Q166.34 29.66 166.34 24.83L166.39 24.88L166.50 24.99Q166.49 20.06 165.84 14.85L165.78 14.79L165.84 14.85Q161.16 14.36 157.96 12.68L157.93 12.65L157.19 10.88L157.30 10.99Q157.03 10.42 156.42 9.20L156.51 9.29L156.53 9.31Q161.59 11.97 167.60 12.16L167.47 12.02L167.58 12.13Q173.52 12.37 178.96 10.31L178.89 10.24L178.92 10.27Q178.15 11.62 177.50 13.45L177.50 13.45L177.46 13.41Q173.91 14.77 169.65 14.96L169.65 14.97L169.70 15.02Q169.34 19.88 169.34 24.82L169.41 24.89L169.38 24.86Q169.52 29.96 169.83 34.94ZM179.62 9.60L179.47 9.45L179.47 9.44Q173.70 11.78 167.49 11.59L167.48 11.58L167.49 11.59Q160.95 11.53 155.85 8.56L155.74 8.44L155.77 8.47Q156.62 9.85 157.91 13.13L157.73 12.94L157.83 13.05Q158.50 13.37 159.76 13.94L159.81 14.00L159.81 14.00Q160.08 14.72 160.42 16.24L160.24 16.07L160.37 16.20Q162.60 16.98 165.65 17.21L165.56 17.12L165.74 17.30Q166.08 20.95 166.08 24.72L165.96 24.60L166.03 24.67Q166.14 30.15 165.34 35.51L165.16 35.34L165.33 35.51Q166.87 35.25 167.40 35.25L167.52 35.37L167.41 35.27Q167.54 35.70 167.49 36.37L167.44 36.32L167.39 36.28Q167.42 37.02 167.42 37.37L167.35 37.30L167.35 37.30Q168.60 37.30 170.13 37.37L169.99 37.23L170.10 37.35Q170.99 37.36 172.82 37.51L172.84 37.54L172.77 37.46Q171.62 32.62 171.51 27.45L171.36 27.30L171.45 27.39Q171.22 21.98 171.75 17.07L171.91 17.22L171.91 17.23Q175.75 16.57 178.91 15.36L178.95 15.40L179.04 15.48Q179.63 12.99 180.66 10.94L180.69 10.97L180.64 10.92Q179.30 11.60 178.50 11.90L178.53 11.93L178.49 11.89Q178.93 10.62 179.50 9.48Z"/><path d="M9 8 C100 13,100 7,182 21" stroke="#222" fill="none"/><path fill="#333" d="M45.48 9.24L45.52 9.27L45.50 9.25Q49.29 11.78 54.04 12.01L54.06 12.02L54.20 12.16Q58.67 12.18 62.94 10.43L63.06 10.55L63.04 10.54Q62.83 11.13 62.07 13.91L62.05 13.89L61.90 13.74Q59.26 14.86 56.29 15.01L56.28 15.01L56.22 14.95Q53.25 15.10 50.36 14.38L50.33 14.35L50.52 14.54Q51.08 18.03 51.27 21.68L51.22 21.64L51.38 21.80Q53.40 22.02 55.00 21.99L54.85 21.84L54.98 21.97Q56.17 21.94 58.57 21.83L58.63 21.89L58.56 21.82Q58.59 22.53 58.59 23.22L58.57 23.20L58.50 24.46L58.44 24.40Q56.13 24.49 51.33 24.56L51.32 24.55L51.37 24.60Q51.20 28.55 50.63 32.54L50.80 32.71L50.76 32.67Q53.32 31.96 56.06 32.07L56.07 32.08L56.12 32.13Q58.90 32.28 61.49 33.12L61.39 33.03L61.43 33.06Q61.43 33.78 61.69 34.54L61.81 34.66L62.18 36.10L62.18 36.10Q58.96 34.78 55.54 34.78L55.56 34.81L55.48 34.73Q50.78 34.90 46.52 37.15L46.43 37.06L46.49 37.12Q48.78 30.27 48.51 23.15L48.51 23.15L48.39 23.03Q48.29 16.04 45.62 9.38ZM45.99 37.84L45.94 37.78L46.00 37.85Q47.20 37.06 47.96 36.72L47.91 36.67L48.00 36.76Q47.82 37.53 47.25 39.06L47.20 39.01L47.26 39.07Q51.72 37.02 56.78 37.28L56.83 37.33L56.78 37.28Q61.95 37.58 65.95 40.28L65.98 40.32L66.01 40.35Q64.70 37.66 64.01 35.72L64.04 35.75L64.06 35.77Q63.04 35.13 62.05 34.78L62.14 34.87L62.05 34.79Q61.67 33.41 61.52 32.61L61.48 32.58L61.58 32.68Q58.41 31.60 55.25 31.60L55.33 31.68L55.32 31.68Q54.09 31.59 52.95 31.70L53.02 31.77L53.14 31.89Q53.25 30.63 53.29 29.41L53.29 29.41L53.21 26.74L53.30 26.84Q55.07 26.70 56.86 26.74L56.98 26.86L56.80 26.68Q58.66 26.75 60.45 26.90L60.51 26.96L60.57 27.02Q60.51 26.09 60.51 25.13L60.42 25.04L60.37 23.09L59.62 23.22L59.71 23.31Q59.30 23.40 58.85 23.40L58.73 23.28L58.80 23.35Q58.76 22.63 58.92 21.34L58.83 21.25L58.99 21.41Q57.39 21.64 56.21 21.68L56.17 21.64L56.19 21.66Q55.14 21.56 53.32 21.49L53.39 21.56L53.33 21.50Q53.20 20.04 53.01 17.22L53.07 17.28L53.17 17.38Q54.19 17.48 55.18 17.48L55.16 17.47L55.10 17.40Q59.73 17.32 63.42 15.41L63.43 15.42L63.45 15.44Q64.01 13.07 64.88 10.86L64.89 10.87L65.06 11.03Q63.54 11.68 62.70 12.02L62.73 12.06L62.84 12.16Q63.04 11.29 63.49 9.73L63.64 9.88L63.57 9.81Q58.88 11.89 54.00 11.59L53.94 11.53L54.02 11.60Q48.70 11.27 44.86 8.42L44.92 8.48L45.00 8.56Q47.76 15.40 48.07 23.01L48.10 23.04L48.18 23.13Q48.46 31.02 45.95 37.80Z"/><path fill="#333" d="M137.44 34.92L137.53 35.00L137.44 34.91Q133.34 34.43 131.51 32.98L131.42 32.89L131.46 32.93Q129.66 31.51 129.24 28.50L129.15 28.41L129.24 28.50Q129.25 28.17 128.91 23.41L128.74 23.24L128.85 23.35Q128.98 22.26 128.90 21.00L128.74 20.84L128.88 20.99Q128.62 15.85 130.83 14.10L130.86 14.14L130.75 14.02Q133.46 11.97 141.22 11.29L141.23 11.29L141.19 11.25Q142.66 11.24 144.30 11.28L144.24 11.22L144.30 11.28Q144.20 11.18 147.17 11.18L147.23 11.24L147.28 11.29Q147.94 11.11 149.65 11.27L149.68 11.29L149.74 11.35Q149.28 12.34 148.25 15.42L148.21 15.38L148.27 15.44Q146.19 14.24 143.19 14.24L143.14 14.19L143.14 14.19Q142.29 14.10 141.49 14.18L141.59 14.28L141.55 14.23Q136.43 14.67 133.91 16.65L133.90 16.64L133.96 16.70Q132.01 18.37 131.86 21.72L131.76 21.62L131.76 21.62Q131.83 22.34 131.87 23.59L131.80 23.53L131.72 23.44Q131.87 28.31 134.26 30.41L134.38 30.52L134.29 30.43Q136.49 32.40 141.48 32.70L141.44 32.67L141.38 32.61Q144.65 32.91 147.66 31.12L147.58 31.04L147.51 30.97Q148.13 33.72 148.74 35.09L148.83 35.19L148.79 35.14Q146.61 35.33 144.98 35.29L145.00 35.32L144.97 35.29Q140.48 35.21 137.35 34.83ZM152.48 38.57L152.66 38.75L152.65 38.74Q150.77 35.64 150.08 33.05L150.17 33.14L150.12 33.09Q149.59 33.25 148.60 33.63L148.77 33.80L148.78 33.80Q148.44 33.00 148.25 32.17L148.18 32.10L147.83 30.42L147.78 30.37Q144.42 32.34 141.30 32.23L141.46 32.39L141.29 32.21Q137.12 32.12 134.79 30.36L134.80 30.37L134.87 30.44Q133.65 28.54 133.73 25.61L133.76 25.64L133.68 25.56Q133.81 21.04 136.29 18.91L136.41 19.03L136.42 19.04Q138.40 16.99 143.08 16.38L143.15 16.45L143.25 16.55Q143.90 16.28 144.62 16.28L144.70 16.36L144.69 16.35Q147.46 16.35 149.56 17.87L149.47 17.78L149.50 17.81Q150.08 15.77 151.30 12.53L151.23 12.46L151.25 12.48Q150.93 12.43 150.38 12.37L150.52 12.51L150.49 12.48Q149.83 12.32 149.56 12.32L149.54 12.29L149.63 12.38Q149.82 11.85 150.27 10.86L150.29 10.88L150.26 10.84Q149.96 10.78 147.47 10.70L147.49 10.72L147.56 10.79Q145.02 10.66 144.37 10.70L144.34 10.67L144.39 10.72Q133.82 11.00 130.36 13.59L130.55 13.78L130.43 13.67Q128.34 15.42 128.34 19.34L128.43 19.43L128.52 19.52Q128.42 20.52 128.53 23.23L128.61 23.30L128.63 23.33Q128.74 26.86 128.97 28.58L128.83 28.44L128.84 28.44Q129.20 31.55 130.80 33.07L130.92 33.19L130.91 33.18Q131.44 33.90 132.70 35.05L132.53 34.87L132.70 35.05Q135.87 36.73 141.12 37.49L141.16 37.53L141.04 37.41Q147.48 38.37 152.47 38.56Z"/><path d="M5 20 C94 14,101 29,191 36" stroke="#333" fill="none"/><path fill="#444" d="M33.34 32.96L33.32 32.93L33.32 32.94Q33.60 33.90 34.13 35.91L34.18 35.97L34.04 35.83Q29.86 34.54 25.26 34.81L25.22 34.77L25.25 34.80Q20.73 35.12 16.74 37.10L16.81 37.17L16.65 37.01Q16.97 36.42 17.01 36.50L17.07 36.56L16.94 36.43Q20.70 32.50 24.62 28.08L24.65 28.11L24.59 28.05Q29.07 23.13 30.25 18.44L30.29 18.49L30.31 18.50Q30.73 16.71 29.45 15.53L29.46 15.54L29.34 15.42Q28.19 14.36 26.40 14.52L26.44 14.55L26.44 14.56Q26.03 14.45 25.69 14.45L25.64 14.41L25.73 14.49Q24.06 14.35 22.80 15.26L22.81 15.26L22.89 15.35Q21.58 16.70 21.81 19.37L21.78 19.34L21.91 19.47Q20.10 19.11 18.88 18.65L18.92 18.69L18.91 18.68Q18.65 17.20 18.57 15.75L18.46 15.64L18.64 15.82Q18.54 14.16 19.15 13.02L19.11 12.97L19.13 13.00Q20.95 11.66 24.30 11.66L24.28 11.64L26.00 11.61L25.93 11.54Q28.25 11.61 29.21 11.73L29.23 11.75L29.16 11.68Q33.59 12.19 33.86 14.63L33.81 14.58L33.82 14.59Q33.98 15.24 33.90 16.04L33.80 15.94L33.87 16.01Q33.78 16.61 33.63 17.29L33.61 17.27L33.71 17.38Q32.07 25.48 24.50 32.33L24.46 32.29L24.34 32.18Q25.90 32.18 27.27 32.18L27.15 32.06L27.16 32.07Q30.36 32.03 33.21 32.83ZM32.77 12.13L32.82 12.18L32.68 12.04Q31.19 11.50 29.47 11.42L29.40 11.35L26.07 11.26L26.07 11.25Q21.58 10.96 19.38 12.06L19.39 12.08L19.22 11.91Q18.35 13.47 18.35 15.53L18.32 15.50L18.21 15.39Q18.39 16.25 18.69 19.07L18.54 18.92L18.66 19.03Q19.20 19.27 20.38 19.58L20.38 19.57L20.23 20.46L20.27 20.49Q20.22 20.94 20.29 21.47L20.38 21.55L20.38 21.56Q21.55 21.58 24.03 21.81L24.01 21.80L24.05 21.84Q24.00 21.44 24.00 21.10L23.94 21.04L24.01 21.11Q23.95 19.22 25.17 17.87L25.28 17.98L25.26 17.96Q26.56 16.69 28.34 16.80L28.19 16.64L28.34 16.80Q29.09 16.82 29.85 16.97L29.72 16.84L29.78 16.91Q29.94 17.33 30.02 17.75L30.04 17.77L29.92 17.66Q29.99 18.10 29.91 18.45L29.92 18.46L29.90 18.43Q28.67 23.22 24.25 28.05L24.21 28.01L24.31 28.11Q22.05 30.22 16.60 36.28L16.79 36.47L16.79 36.46Q16.58 37.29 16.24 37.86L16.13 37.75L16.17 37.79Q17.69 36.83 19.21 36.30L19.20 36.29L19.30 36.39Q18.53 36.91 17.58 38.40L17.62 38.44L17.68 38.50Q17.52 38.80 17.41 39.14L17.38 39.11L17.35 39.08Q22.32 37.12 27.80 37.31L27.71 37.22L27.70 37.22Q33.46 37.45 38.03 39.81L37.99 39.77L37.06 37.70L36.92 37.57Q36.33 36.28 36.06 35.48L36.10 35.52L36.12 35.54Q35.42 35.15 34.20 34.73L34.09 34.61L34.15 34.68Q34.06 34.02 33.68 32.65L33.56 32.53L33.50 32.46Q31.34 31.94 29.06 31.75L29.12 31.82L29.17 31.87Q33.84 27.29 35.37 19.03L35.38 19.04L35.51 16.09L35.56 16.14Q35.42 14.28 34.20 13.60L34.24 13.64L34.19 13.63L34.24 13.68Q34.21 13.61 34.14 13.61L34.15 13.63L34.13 13.60Q33.91 12.78 32.81 12.17Z"/><path fill="#111" d="M90.61 35.42L90.58 35.39L90.62 35.43Q87.60 31.50 84.97 22.86L85.01 22.90L84.99 22.87Q84.37 20.77 83.57 18.64L83.53 18.59L80.69 27.40L80.67 27.39Q78.90 32.35 76.50 35.59L76.40 35.49L76.46 35.55Q75.54 35.54 73.90 35.69L73.93 35.72L73.90 35.69Q74.12 34.62 74.12 33.36L74.13 33.37L73.96 33.20Q73.97 27.20 71.23 21.07L71.22 21.05L71.40 21.24Q68.26 14.33 62.40 9.34L62.26 9.21L62.25 9.20Q64.47 9.97 66.83 10.50L66.91 10.58L66.90 10.57Q75.45 18.89 76.75 29.86L76.75 29.86L76.83 29.94Q78.35 26.52 79.80 21.15L79.89 21.24L79.89 21.24Q81.81 13.68 82.30 12.27L82.36 12.33L84.57 12.29L84.66 12.38Q85.29 14.34 85.93 16.66L86.00 16.73L87.16 21.09L87.22 21.14Q88.72 26.53 90.13 29.76L90.11 29.74L90.14 29.77Q91.86 18.21 99.78 10.86L99.79 10.87L99.76 10.84Q101.26 10.48 104.23 9.83L104.20 9.81L104.32 9.92Q98.96 14.19 95.91 20.32L95.85 20.26L95.89 20.30Q92.86 26.59 92.86 33.37L92.74 33.25L92.77 33.28Q92.85 34.46 92.92 35.61L92.78 35.46L91.64 35.35L91.63 35.34Q91.22 35.46 90.65 35.46ZM96.87 38.33L96.74 38.20L96.82 38.28Q95.53 34.67 95.65 30.79L95.68 30.82L95.60 30.74Q96.03 19.30 105.40 11.04L105.45 11.09L105.39 11.03Q104.49 11.31 102.55 11.84L102.49 11.78L102.41 11.70Q103.46 10.96 105.36 9.17L105.35 9.16L105.28 9.09Q102.77 10.01 99.84 10.50L99.84 10.50L99.78 10.45Q92.32 17.60 90.41 27.08L90.30 26.96L90.32 26.99Q89.76 25.36 86.90 13.90L86.88 13.88L86.95 13.95Q86.49 13.98 85.54 13.98L85.53 13.98L85.16 12.84L85.16 12.84Q85.20 12.46 84.97 11.97L84.82 11.81L81.91 11.80L82.01 11.90Q81.21 14.37 79.93 19.49L79.93 19.49L79.98 19.54Q78.60 24.55 77.61 27.03L77.59 27.01L77.71 27.13Q75.97 19.07 70.42 12.75L70.57 12.91L70.59 12.93Q70.08 12.84 69.13 12.65L69.06 12.58L68.99 12.51Q68.24 11.64 66.67 10.00L66.87 10.20L66.72 10.05Q63.48 9.39 61.31 8.59L61.15 8.44L61.28 8.57Q66.87 13.16 70.14 19.37L70.23 19.46L70.23 19.46Q73.65 26.04 73.65 33.04L73.62 33.02L73.58 32.97Q73.65 34.60 73.46 36.20L73.47 36.21L73.37 36.11Q73.66 36.18 74.12 36.08L74.16 36.12L74.08 36.04Q74.56 35.97 74.78 35.97L74.77 35.95L74.74 36.95L74.89 37.10Q74.77 37.44 74.85 37.97L74.90 38.02L74.94 38.06Q76.03 37.94 78.31 37.78L78.28 37.75L78.24 37.71Q81.91 32.35 84.65 22.95L84.64 22.94L84.60 22.91Q87.37 31.69 90.34 35.65L90.49 35.80L90.37 35.68Q90.96 35.81 91.80 35.93L91.80 35.93L91.72 35.85Q92.67 36.99 93.74 38.06L93.58 37.90L93.60 37.91Q94.50 38.09 96.90 38.36Z"/><path fill="#333" d="M107.65 24.63L107.61 24.59L107.70 24.68Q107.68 28.93 106.96 33.08L106.97 33.09L106.93 33.05Q109.20 32.50 112.28 32.39L112.33 32.44L112.33 32.43Q113.60 32.57 114.67 31.56L114.59 31.47L114.71 31.60Q115.79 30.61 115.79 29.28L115.82 29.30L115.72 29.20Q115.64 28.82 115.61 28.55L115.63 28.58L115.77 28.72Q115.47 25.64 113.23 24.81L113.27 24.85L113.30 24.88Q112.52 24.56 111.84 24.63L111.87 24.67L111.93 24.72Q110.80 24.59 109.77 24.63L109.74 24.59L109.73 24.58Q108.77 24.72 107.74 24.72ZM106.43 14.20L106.41 14.18L106.43 14.20Q107.29 17.50 107.56 21.88L107.67 21.99L107.52 21.84Q109.03 22.01 111.69 22.05L111.67 22.03L111.73 22.09Q114.59 22.06 114.93 18.52L114.88 18.47L114.92 18.50Q115.24 16.69 113.83 15.85L113.74 15.76L113.82 15.85Q112.75 15.15 108.33 14.51L108.50 14.67L108.49 14.66Q107.38 14.46 106.46 14.24ZM102.86 37.17L102.73 37.04L102.71 37.01Q105.34 30.50 105.07 23.12L104.94 22.99L104.94 22.99Q104.65 15.70 101.72 9.23L101.81 9.31L101.79 9.30Q105.63 11.88 111.86 12.13L111.86 12.14L111.77 12.04Q118.04 12.34 118.39 15.23L118.27 15.11L118.27 15.12Q118.79 18.07 117.38 20.74L117.32 20.67L117.35 20.70Q116.45 22.05 114.85 22.73L114.98 22.87L114.84 22.73Q118.67 23.59 118.90 28.95L118.85 28.91L118.72 28.77Q118.85 29.94 118.78 31.35L118.80 31.37L118.80 31.37Q118.87 32.81 117.94 33.74L117.86 33.66L117.90 33.71Q116.90 34.57 115.56 34.72L115.59 34.75L115.62 34.78Q114.19 34.91 113.13 34.91L113.04 34.82L113.00 34.78Q107.41 34.90 102.88 37.19ZM115.56 37.38L115.54 37.36L115.48 37.30Q116.60 37.55 118.47 37.66L118.40 37.59L118.43 37.62Q119.78 37.60 120.89 36.73L120.88 36.72L120.87 36.71Q121.63 35.76 121.51 34.19L121.56 34.24L121.64 34.33Q121.59 33.39 120.87 29.93L120.76 29.82L120.73 29.79Q120.02 26.53 118.15 25.05L118.31 25.20L117.92 24.40L117.76 24.23Q119.44 22.83 120.01 19.06L120.06 19.11L120.09 19.15Q120.14 17.89 120.06 16.49L120.16 16.59L120.06 16.49Q120.01 15.18 118.91 14.35L119.01 14.44L118.97 14.40Q118.72 14.27 118.60 14.23L118.63 14.26L118.47 14.09Q118.27 13.63 117.43 12.83L117.47 12.87L117.46 12.86Q115.93 11.79 111.71 11.60L111.78 11.67L111.83 11.72Q105.12 11.36 101.12 8.47L101.03 8.38L101.07 8.42Q104.31 15.39 104.61 22.93L104.68 22.99L104.74 23.05Q104.94 30.76 102.12 37.68L102.29 37.85L104.32 36.87L104.18 36.74Q103.94 38.02 103.45 39.16L103.36 39.07L103.34 39.05Q107.63 37.17 112.65 37.17L112.68 37.20L112.71 37.23Q114.08 37.19 115.53 37.34ZM113.51 26.92L113.48 26.89L113.49 26.90Q114.13 26.73 115.04 27.19L115.16 27.30L115.02 27.16Q115.12 27.50 115.27 28.56L115.33 28.62L115.33 28.62Q115.56 30.03 114.62 31.07L114.69 31.14L114.58 31.03Q113.75 32.18 112.34 32.07L112.27 31.99L110.87 32.20L110.72 32.04Q110.09 32.21 109.37 32.33L109.32 32.28L109.27 32.23Q109.60 30.43 109.67 26.96L109.76 27.05L109.69 26.98Q110.23 26.79 111.49 26.76L111.51 26.78L111.59 26.86Q112.87 26.85 113.48 26.89ZM112.34 17.18L112.43 17.27L112.80 17.26L112.73 17.19Q113.01 17.24 113.20 17.28L113.20 17.28L113.54 17.24L113.99 17.49L114.62 17.59L114.53 17.50Q114.55 17.68 114.55 17.98L114.54 17.98L114.57 18.54L114.55 18.51Q114.64 19.86 113.76 20.79L113.76 20.79L113.80 20.83Q112.94 21.78 111.72 21.78L111.65 21.71L111.68 21.74Q110.70 21.78 110.70 21.78L110.59 21.67L110.66 21.74Q109.35 21.73 109.70 21.73L109.70 21.73L109.71 21.74Q109.54 20.09 109.24 17.05L109.24 17.04L109.29 17.10Q110.93 17.29 112.45 17.29Z"/></svg>