<svg xmlns="http://www.w3.org/2000/svg" width="200" height="40" viewBox="0,0,200,40"><path fill="#444" d="M79.40 24.67L79.43 24.70L79.45 24.72Q79.41 28.94 78.68 33.09L78.62 33.03L78.56 32.97Q80.82 32.41 83.91 32.30L83.88 32.27L83.99 32.38Q85.30 32.55 86.37 31.54L86.34 31.51L86.37 31.55Q87.42 30.52 87.42 29.19L87.42 29.19L87.50 29.27Q87.51 28.97 87.47 28.70L87.43 28.66L87.47 28.70Q87.23 25.68 84.98 24.85L85.05 24.91L84.93 24.80Q84.28 24.60 83.60 24.68L83.62 24.70L83.55 24.63Q82.55 24.63 81.53 24.66L81.44 24.57L81.47 24.61Q80.38 24.62 79.35 24.62ZM78.12 14.17L78.09 14.15L78.10 14.15Q79.08 17.57 79.35 21.95L79.27 21.88L79.25 21.85Q80.84 22.11 83.51 22.15L83.33 21.97L83.45 22.10Q86.36 22.11 86.70 18.57L86.60 18.47L86.61 18.48Q86.80 16.54 85.39 15.70L85.56 15.87L85.49 15.80Q84.59 15.28 80.18 14.64L80.14 14.60L80.13 14.59Q79.01 14.39 78.10 14.16ZM74.47 37.06L74.55 37.14L74.55 37.14Q77.05 30.51 76.78 23.12L76.61 22.95L76.71 23.05Q76.37 15.70 73.43 9.22L73.44 9.23L73.55 9.34Q77.23 11.76 83.45 12.01L83.47 12.02L83.59 12.14Q89.78 12.36 90.13 15.26L90.06 15.19L90.13 15.26Q90.42 17.99 89.01 20.65L88.99 20.63L88.96 20.60Q88.16 22.05 86.56 22.73L86.71 22.88L86.67 22.84Q90.24 23.44 90.46 28.81L90.61 28.95L90.51 28.85Q90.58 29.95 90.50 31.36L90.54 31.39L90.49 31.34Q90.46 32.68 89.53 33.61L89.49 33.58L89.54 33.63Q88.59 34.54 87.25 34.69L87.32 34.76L87.23 34.66Q85.82 34.82 84.75 34.82L84.78 34.84L84.73 34.80Q78.98 34.76 74.45 37.04ZM87.34 37.44L87.32 37.42L87.29 37.40Q88.16 37.38 90.02 37.50L90.17 37.65L90.05 37.53Q91.50 37.61 92.61 36.74L92.71 36.84L92.69 36.82Q93.51 35.93 93.40 34.36L93.25 34.21L93.31 34.27Q93.28 33.37 92.55 29.91L92.46 29.81L92.47 29.83Q91.74 26.54 89.87 25.05L89.87 25.05L89.60 24.37L89.56 24.32Q91.26 22.94 91.83 19.17L91.80 19.14L91.70 19.04Q92.01 18.05 91.93 16.64L91.93 16.64L91.82 16.53Q91.76 15.22 90.66 14.38L90.73 14.45L90.80 14.52Q90.42 14.26 90.30 14.22L90.23 14.14L90.21 14.12Q89.98 13.62 89.14 12.82L89.24 12.92L89.11 12.79Q87.75 11.89 83.52 11.70L83.37 11.55L83.45 11.62Q76.77 11.30 72.77 8.41L72.82 8.46L72.91 8.55Q76.03 15.40 76.34 22.94L76.44 23.04L76.49 23.10Q76.81 30.91 73.99 37.84L73.98 37.83L76.06 36.90L75.96 36.80Q75.67 38.03 75.17 39.17L75.14 39.14L75.04 39.04Q79.34 37.18 84.37 37.18L84.43 37.24L84.47 37.28Q85.81 37.20 87.25 37.36ZM85.19 26.88L85.14 26.83L85.16 26.85Q85.79 26.68 86.70 27.13L86.89 27.33L86.72 27.16Q86.96 27.62 87.11 28.68L87.16 28.73L86.99 28.57Q87.20 29.96 86.27 31.00L86.31 31.04L86.41 31.15Q85.46 32.18 84.06 32.07L83.92 31.93L82.44 32.05L82.45 32.06Q81.69 32.10 80.97 32.21L81.06 32.30L81.01 32.25Q81.41 30.53 81.49 27.06L81.35 26.92L81.41 26.98Q82.05 26.90 83.31 26.87L83.37 26.92L83.21 26.77Q84.61 26.87 85.21 26.91ZM84.18 17.31L84.21 17.34L84.56 17.30L84.45 17.19Q84.74 17.25 84.93 17.29L84.94 17.31L85.22 17.21L85.64 17.43L86.25 17.51L86.36 17.62Q86.32 17.74 86.32 18.04L86.38 18.09L86.42 18.67L86.25 18.50Q86.38 19.88 85.50 20.82L85.52 20.84L85.57 20.88Q84.55 21.67 83.33 21.67L83.32 21.66L83.28 21.62Q82.32 21.69 82.32 21.69L82.43 21.79L82.39 21.76Q81.10 21.76 81.44 21.76L81.45 21.77L81.39 21.71Q81.36 20.19 81.05 17.15L81.07 17.16L81.07 17.16Q82.61 17.25 84.13 17.25Z"/><path fill="#222" d="M29.24 22.21L29.23 22.20L29.25 22.23Q29.97 22.14 31.38 21.99L31.33 21.94L31.46 22.07Q31.32 22.62 31.32 23.27L31.32 23.26L31.41 24.61L31.45 24.65Q30.59 24.63 29.75 24.70L29.73 24.68L29.61 24.56Q28.95 24.78 28.12 24.74L27.98 24.60L28.04 24.66Q25.14 30.79 21.72 35.40L21.73 35.41L21.82 35.50Q19.23 36.07 17.94 36.68L17.94 36.69L18.02 36.76Q22.01 30.93 25.06 24.65L25.16 24.75L22.39 24.61L22.53 24.75Q22.50 23.39 22.39 22.06L22.35 22.02L22.33 22.00Q24.29 22.21 26.34 22.21L26.36 22.23L28.19 18.46L28.29 18.56Q29.19 16.56 30.41 14.96L30.32 14.88L30.34 14.89Q28.92 15.19 27.32 15.19L27.33 15.20L27.31 15.18Q21.14 15.10 17.37 12.89L17.45 12.97L16.81 11.26L16.83 11.28Q16.46 10.42 16.08 9.55L15.97 9.44L16.00 9.47Q20.33 12.09 26.05 12.32L26.10 12.37L26.08 12.35Q31.14 12.50 36.28 10.52L36.29 10.53L36.39 10.63Q36.15 11.00 35.66 11.88L35.73 11.95L35.71 11.93Q32.02 16.61 29.16 22.13ZM37.27 13.26L37.21 13.21L38.33 11.31L38.34 11.33Q37.39 11.82 35.72 12.55L35.58 12.41L35.78 12.11L35.77 12.10Q35.93 11.99 36.04 11.88L36.12 11.96L36.05 11.89Q36.39 11.16 37.11 9.83L37.18 9.90L37.07 9.78Q31.87 12.20 26.12 11.98L26.01 11.86L26.16 12.01Q19.99 11.59 15.23 8.62L15.37 8.76L15.40 8.79Q16.37 10.60 17.21 13.26L17.13 13.18L17.21 13.27Q18.22 13.82 19.02 14.12L19.01 14.11L19.03 14.13Q19.15 14.44 19.61 16.31L19.58 16.29L19.68 16.38Q22.90 17.69 28.42 17.54L28.32 17.45L28.41 17.54Q27.99 17.99 26.01 21.76L26.08 21.83L26.03 21.78Q23.99 21.80 22.01 21.61L22.14 21.73L22.01 21.60Q22.19 22.55 22.19 23.42L22.19 23.42L22.16 25.10L23.89 25.16L23.89 26.57L23.84 26.52Q19.94 33.93 17.16 37.51L17.02 37.36L17.01 37.35Q18.61 36.59 20.25 36.10L20.38 36.23L20.33 36.18Q19.57 37.02 18.20 38.73L18.19 38.72L18.36 38.89Q21.41 37.68 23.84 37.45L23.88 37.49L23.89 37.49Q26.74 33.65 29.87 26.87L29.95 26.95L33.28 27.05L33.43 27.20Q33.26 26.19 33.26 25.28L33.25 25.27L33.22 23.45L33.25 23.48Q32.94 23.44 32.39 23.48L32.40 23.49L32.38 23.47Q31.81 23.48 31.54 23.48L31.56 23.50L31.62 23.56Q31.60 23.43 31.64 23.28L31.72 23.36L31.65 23.02L31.76 23.13Q34.28 18.00 37.36 13.35Z"/><path fill="#222" d="M52.60 34.93L52.65 34.98L52.66 34.99Q48.32 34.27 46.50 32.82L46.49 32.82L46.49 32.82Q44.83 31.54 44.42 28.54L44.30 28.42L44.42 28.54Q44.27 28.05 43.93 23.29L43.89 23.25L43.95 23.31Q44.11 22.26 44.04 21.00L43.88 20.84L44.04 21.00Q43.83 15.92 46.04 14.17L46.01 14.14L45.91 14.04Q48.59 11.96 56.36 11.28L56.38 11.30L56.34 11.26Q57.81 11.24 59.45 11.28L59.39 11.22L59.29 11.13Q59.42 11.25 62.39 11.25L62.39 11.26L62.41 11.28Q63.12 11.15 64.83 11.30L64.81 11.28L64.97 11.44Q64.49 12.41 63.46 15.49L63.43 15.46L63.29 15.32Q61.24 14.14 58.23 14.14L58.24 14.15L58.18 14.09Q57.58 14.25 56.78 14.33L56.76 14.30L56.68 14.23Q51.59 14.70 49.08 16.68L49.12 16.72L49.16 16.76Q47.16 18.38 47.01 21.73L46.86 21.57L46.84 21.55Q46.98 22.34 47.01 23.60L46.99 23.58L46.89 23.47Q46.94 28.24 49.33 30.33L49.41 30.41L49.45 30.45Q51.62 32.39 56.61 32.70L56.58 32.67L56.61 32.70Q59.74 32.86 62.75 31.07L62.68 31.00L62.75 31.07Q63.24 33.69 63.85 35.06L64.00 35.21L64.00 35.21Q61.89 35.47 60.25 35.43L60.19 35.37L60.19 35.36Q55.74 35.33 52.62 34.95ZM67.65 38.60L67.63 38.58L67.66 38.61Q65.83 35.56 65.15 32.97L65.22 33.05L65.28 33.10Q64.80 33.31 63.81 33.69L63.81 33.69L63.86 33.75Q63.44 32.86 63.25 32.03L63.34 32.12L62.89 30.34L62.82 30.26Q59.71 32.49 56.59 32.37L56.48 32.26L56.46 32.24Q52.31 32.16 49.98 30.41L49.92 30.34L49.91 30.34Q48.73 28.47 48.81 25.54L48.77 25.50L48.95 25.68Q49.03 21.12 51.50 18.99L51.45 18.93L51.50 18.98Q53.61 17.05 58.29 16.44L58.39 16.55L58.28 16.43Q59.03 16.27 59.75 16.27L59.84 16.36L59.87 16.38Q62.67 16.41 64.76 17.93L64.80 17.97L64.67 17.84Q65.25 15.79 66.47 12.56L66.35 12.43L66.46 12.54Q66.17 12.53 65.62 12.47L65.50 12.35L65.62 12.47Q65.11 12.45 64.84 12.45L64.71 12.32L64.73 12.34Q64.98 11.87 65.44 10.88L65.35 10.79L65.35 10.79Q65.18 10.85 62.69 10.77L62.75 10.84L62.79 10.88Q60.17 10.68 59.52 10.71L59.56 10.75L59.57 10.76Q48.96 11.00 45.49 13.59L45.51 13.61L45.55 13.64Q43.55 15.49 43.55 19.41L43.56 19.42L43.53 19.39Q43.62 20.58 43.73 23.28L43.74 23.29L43.78 23.33Q43.75 26.72 43.97 28.44L44.10 28.57L44.00 28.46Q44.43 31.63 46.02 33.15L46.03 33.16L45.94 33.07Q46.42 33.74 47.68 34.88L47.84 35.04L47.74 34.94Q51.12 36.84 56.37 37.60L56.28 37.51L56.25 37.47Q62.67 38.41 67.66 38.60Z"/><path d="M4 25 C86 10,101 32,197 17" stroke="#666" fill="none"/><path fill="#444" d="M170.59 22.13L170.54 22.08L170.65 22.19Q171.48 22.23 172.89 22.07L172.93 22.12L172.84 22.02Q172.75 22.61 172.75 23.26L172.80 23.31L172.85 24.62L172.80 24.57Q172.03 24.64 171.20 24.72L171.04 24.56L171.09 24.61Q170.28 24.68 169.45 24.64L169.54 24.73L169.44 24.64Q166.64 30.86 163.21 35.46L163.07 35.32L163.16 35.41Q160.74 36.15 159.44 36.76L159.31 36.62L159.30 36.61Q163.54 31.03 166.59 24.75L166.61 24.78L163.87 24.67L163.95 24.75Q163.91 23.37 163.79 22.04L163.83 22.07L163.85 22.09Q165.65 22.14 167.71 22.14L167.67 22.10L169.58 18.42L169.70 18.54Q170.64 16.58 171.85 14.98L171.75 14.88L171.91 15.04Q170.27 15.12 168.68 15.12L168.72 15.16L168.62 15.07Q162.69 15.22 158.92 13.01L158.87 12.96L158.24 11.27L158.28 11.30Q157.81 10.34 157.43 9.47L157.39 9.43L157.37 9.41Q161.72 12.04 167.43 12.27L167.53 12.37L167.45 12.29Q172.69 12.62 177.83 10.64L177.69 10.50L177.72 10.53Q177.52 10.94 177.03 11.82L177.15 11.94L177.01 11.81Q173.45 16.62 170.60 22.14ZM178.63 13.19L178.68 13.25L179.70 11.26L179.68 11.24Q178.74 11.74 177.07 12.47L177.01 12.41L177.20 12.10L177.21 12.12Q177.31 11.95 177.43 11.84L177.45 11.86L177.56 11.97Q177.88 11.22 178.60 9.89L178.66 9.95L178.63 9.92Q173.31 12.22 167.56 11.99L167.49 11.91L167.48 11.91Q161.47 11.64 156.71 8.67L156.64 8.60L156.76 8.72Q157.83 10.62 158.66 13.29L158.61 13.24L158.51 13.13Q159.64 13.80 160.44 14.11L160.48 14.15L160.50 14.17Q160.58 14.44 161.03 16.31L161.07 16.34L161.18 16.45Q164.36 17.73 169.88 17.58L169.78 17.48L169.85 17.55Q169.44 18.01 167.46 21.78L167.44 21.76L167.42 21.74Q165.51 21.89 163.53 21.70L163.48 21.64L163.39 21.56Q163.61 22.54 163.61 23.41L163.48 23.28L163.56 25.08L165.31 25.16L165.30 26.55L165.29 26.54Q161.30 33.86 158.52 37.43L158.48 37.40L158.43 37.34Q160.15 36.71 161.79 36.21L161.72 36.14L161.70 36.12Q161.00 37.02 159.63 38.73L159.74 38.84L159.78 38.88Q162.96 37.80 165.40 37.57L165.37 37.55L165.32 37.49Q168.33 33.80 171.45 27.02L171.31 26.88L174.74 27.08L174.75 27.09Q174.70 26.20 174.70 25.29L174.67 25.26L174.69 23.49L174.65 23.45Q174.44 23.51 173.89 23.55L173.90 23.56L173.96 23.62Q173.40 23.65 173.13 23.65L173.06 23.57L173.15 23.67Q172.97 23.37 173.01 23.22L173.13 23.34L173.18 23.12L173.18 23.12Q175.55 17.84 178.64 13.20Z"/><path d="M14 33 C80 27,120 11,186 13" stroke="#666" fill="none"/><path fill="#333" d="M137.46 34.93L137.50 34.97L137.44 34.91Q133.29 34.38 131.46 32.93L131.41 32.88L131.42 32.89Q129.67 31.52 129.25 28.52L129.18 28.45L129.22 28.48Q129.07 27.99 128.72 23.23L128.91 23.41L128.87 23.37Q128.87 22.16 128.80 20.90L128.78 20.88L128.88 20.98Q128.59 15.83 130.80 14.08L130.86 14.13L130.89 14.17Q133.40 11.91 141.16 11.23L141.34 11.40L141.16 11.23Q142.68 11.25 144.31 11.29L144.16 11.14L144.25 11.23Q144.15 11.13 147.12 11.13L147.15 11.16L147.16 11.17Q148.09 11.26 149.80 11.41L149.71 11.33L149.82 11.43Q149.29 12.35 148.26 15.43L148.27 15.44L148.19 15.36Q146.17 14.22 143.16 14.22L143.20 14.26L143.16 14.21Q142.42 14.23 141.62 14.31L141.60 14.29L141.57 14.26Q136.56 14.81 134.04 16.78L133.93 16.67L133.98 16.72Q131.87 18.23 131.72 21.58L131.86 21.72L131.69 21.54Q131.78 22.29 131.82 23.54L131.72 23.44L131.73 23.45Q131.93 28.37 134.33 30.47L134.36 30.50L134.36 30.50Q136.55 32.46 141.53 32.76L141.38 32.61L141.53 32.75Q144.50 32.76 147.50 30.97L147.55 31.02L147.48 30.94Q148.18 33.77 148.78 35.14L148.78 35.14L148.76 35.11Q146.70 35.41 145.06 35.38L145.11 35.42L145.16 35.47Q140.48 35.22 137.36 34.84ZM152.47 38.56L152.66 38.75L152.65 38.74Q150.79 35.66 150.10 33.07L150.09 33.06L150.10 33.07Q149.61 33.26 148.62 33.64L148.74 33.76L148.66 33.69Q148.24 32.81 148.05 31.97L148.08 32.00L147.69 30.28L147.83 30.42Q144.44 32.35 141.31 32.24L141.41 32.33L141.42 32.34Q137.13 32.13 134.81 30.38L134.69 30.25L134.77 30.34Q133.61 28.49 133.68 25.56L133.74 25.62L133.78 25.66Q133.84 21.07 136.31 18.94L136.38 19.01L136.27 18.90Q138.39 16.98 143.07 16.37L143.11 16.41L143.19 16.49Q144.02 16.41 144.74 16.41L144.70 16.37L144.66 16.32Q147.47 16.35 149.56 17.87L149.46 17.77L149.54 17.85Q150.05 15.73 151.26 12.49L151.23 12.47L151.37 12.60Q150.98 12.47 150.42 12.42L150.44 12.43L150.48 12.47Q149.86 12.35 149.59 12.35L149.65 12.41L149.59 12.34Q149.81 11.84 150.26 10.85L150.27 10.85L150.34 10.92Q150.10 10.91 147.60 10.83L147.54 10.77L147.54 10.77Q145.10 10.74 144.45 10.78L144.45 10.79L144.41 10.74Q133.96 11.14 130.49 13.73L130.42 13.66L130.47 13.70Q128.47 15.55 128.47 19.47L128.50 19.50L128.36 19.36Q128.39 20.50 128.51 23.20L128.51 23.20L128.56 23.25Q128.57 26.69 128.80 28.40L128.84 28.45L128.90 28.51Q129.20 31.55 130.80 33.07L130.91 33.18L130.90 33.17Q131.38 33.84 132.63 34.98L132.52 34.87L132.62 34.97Q135.92 36.79 141.18 37.55L141.10 37.47L141.12 37.49Q147.56 38.44 152.54 38.63Z"/><path fill="#333" d="M102.16 9.34L102.06 9.24L102.04 9.22Q105.99 11.91 110.74 12.14L110.68 12.08L110.69 12.08Q115.39 12.33 119.65 10.58L119.50 10.42L119.57 10.49Q119.30 11.03 118.54 13.80L118.63 13.89L118.60 13.86Q115.87 14.91 112.90 15.06L112.82 14.98L112.93 15.08Q109.86 15.14 106.97 14.41L106.97 14.42L107.07 14.51Q107.70 18.08 107.89 21.73L107.84 21.69L107.93 21.78Q109.98 22.03 111.58 22.00L111.41 21.82L111.48 21.89Q112.78 21.98 115.18 21.87L115.07 21.76L115.10 21.79Q115.06 22.43 115.06 23.11L115.16 23.22L115.07 24.45L115.03 24.42Q112.60 24.38 107.80 24.46L107.83 24.49L107.77 24.43Q107.79 28.56 107.22 32.56L107.23 32.57L107.38 32.72Q109.90 31.97 112.64 32.08L112.74 32.18L112.73 32.17Q115.47 32.28 118.06 33.12L117.99 33.05L117.91 32.97Q117.95 33.73 118.21 34.49L118.25 34.53L118.76 36.10L118.85 36.19Q115.51 34.76 112.09 34.76L112.08 34.76L112.19 34.87Q107.18 34.73 102.92 36.97L102.99 37.05L102.90 36.96Q105.40 30.32 105.14 23.21L105.08 23.15L104.97 23.04Q104.71 15.89 102.05 9.23ZM102.41 37.69L102.57 37.85L102.41 37.68Q103.83 37.13 104.59 36.78L104.62 36.81L104.57 36.76Q104.42 37.56 103.85 39.08L103.77 39.01L103.78 39.02Q108.20 36.93 113.26 37.19L113.42 37.36L113.28 37.21Q118.44 37.50 122.44 40.21L122.45 40.21L122.51 40.27Q121.41 37.81 120.73 35.86L120.73 35.87L120.60 35.74Q119.63 35.15 118.64 34.81L118.64 34.81L118.59 34.76Q118.23 33.40 118.08 32.60L118.18 32.71L118.12 32.65Q115.08 31.70 111.92 31.70L111.87 31.65L112.00 31.78Q110.72 31.64 109.58 31.76L109.63 31.81L109.65 31.83Q109.79 30.60 109.83 29.38L109.74 29.30L109.86 26.83L109.90 26.86Q111.71 26.77 113.50 26.81L113.38 26.69L113.38 26.69Q115.38 26.90 117.17 27.05L117.01 26.90L117.03 26.91Q116.91 25.92 116.91 24.97L116.97 25.03L116.95 23.11L116.24 23.27L116.27 23.30Q115.73 23.25 115.27 23.25L115.29 23.27L115.36 23.34Q115.36 22.66 115.51 21.36L115.45 21.30L115.57 21.42Q113.81 21.49 112.63 21.53L112.64 21.54L112.68 21.57Q111.78 21.62 109.95 21.54L109.94 21.54L109.94 21.53Q109.92 20.18 109.73 17.37L109.69 17.33L109.71 17.35Q110.72 17.45 111.71 17.45L111.61 17.35L111.77 17.51Q116.34 17.35 120.03 15.45L120.08 15.50L120.10 15.51Q120.63 13.12 121.51 10.91L121.52 10.92L121.49 10.90Q120.22 11.79 119.38 12.13L119.46 12.21L119.42 12.17Q119.60 11.28 120.05 9.72L120.08 9.75L120.12 9.79Q115.57 12.02 110.70 11.71L110.53 11.55L110.71 11.72Q105.30 11.30 101.46 8.45L101.42 8.41L101.48 8.47Q104.36 15.42 104.66 23.03L104.65 23.02L104.77 23.14Q104.97 30.96 102.46 37.74Z"/></svg>