<svg xmlns="http://www.w3.org/2000/svg" width="200" height="40" viewBox="0,0,200,40"><path d="M17 30 C107 20,111 33,188 18" stroke="#999" fill="none"/><path fill="#111" d="M120.87 18.06L120.83 18.01L120.96 18.14Q119.05 20.77 116.38 26.40L116.31 26.32L114.32 30.58L114.41 30.67Q113.55 32.59 112.22 34.83L112.25 34.87L112.23 34.85Q112.60 34.76 110.93 34.80L110.99 34.87L111.04 34.91Q111.01 34.88 109.75 34.88L109.78 34.91L109.75 34.88Q109.00 33.37 106.07 26.22L105.98 26.13L106.01 26.15Q103.80 20.74 101.71 17.74L101.71 17.74L101.81 17.84Q102.53 20.89 102.53 24.05L102.47 23.98L102.60 24.11Q102.55 30.58 99.58 36.13L99.61 36.16L99.59 36.14Q98.16 36.38 95.80 37.11L95.98 37.29L95.95 37.26Q99.51 31.45 99.51 24.22L99.64 24.35L99.50 24.21Q99.51 15.28 94.11 8.31L94.14 8.34L94.26 8.47Q95.76 9.05 98.12 9.74L98.14 9.76L98.22 9.84Q105.26 16.57 111.35 29.90L111.37 29.91L111.40 29.94Q114.77 22.81 116.98 19.30L117.04 19.37L116.93 19.25Q120.69 13.65 124.65 10.19L124.50 10.04L124.57 10.11Q125.79 9.84 128.15 9.08L128.16 9.09L128.22 9.15Q123.11 15.65 123.11 24.26L123.23 24.38L123.23 24.38Q123.21 31.01 126.63 36.53L126.56 36.46L126.60 36.51Q125.19 36.12 122.45 35.51L122.61 35.68L122.63 35.69Q120.26 30.88 120.26 24.90L120.16 24.81L120.11 24.76Q120.20 21.42 120.88 18.07ZM122.42 36.05L122.39 36.02L122.39 36.03Q123.13 36.19 124.58 36.46L124.58 36.46L124.58 36.46Q125.00 37.19 125.95 38.67L125.85 38.57L125.97 38.69Q128.00 39.01 131.47 40.23L131.55 40.31L131.42 40.18Q125.20 33.88 125.20 24.06L125.21 24.07L125.13 23.99Q125.14 16.28 129.52 10.15L129.57 10.19L127.37 10.89L127.42 10.94Q128.46 9.43 129.11 8.56L129.02 8.46L129.09 8.54Q127.28 9.24 124.66 9.78L124.48 9.60L124.61 9.73Q117.78 15.76 111.72 28.36L111.69 28.33L111.72 28.36Q106.53 17.39 101.58 12.13L101.52 12.07L101.65 12.20Q101.17 12.03 100.60 11.91L100.69 12.01L99.51 10.74L99.49 10.73Q98.93 10.09 98.24 9.48L98.26 9.49L98.24 9.48Q95.15 8.44 93.36 7.72L93.38 7.73L93.39 7.75Q99.28 14.86 99.28 24.26L99.29 24.27L99.40 24.37Q99.26 31.85 95.11 37.71L95.08 37.68L95.26 37.87Q95.80 37.49 97.10 37.07L97.13 37.11L97.17 37.15Q97.01 37.37 95.60 39.46L95.69 39.55L95.69 39.55Q97.45 39.03 100.95 38.27L100.83 38.14L100.83 38.15Q104.66 31.20 104.47 23.44L104.46 23.42L104.49 23.45Q105.90 27.34 109.36 35.22L109.46 35.32L109.35 35.21Q109.59 35.14 109.82 35.14L109.84 35.16L110.52 35.30L110.41 35.20Q110.97 35.99 111.77 37.28L111.74 37.25L111.72 37.23Q113.35 37.23 113.35 37.23L113.30 37.18L113.41 37.28Q114.39 37.23 115.03 37.31L114.98 37.25L114.96 37.24Q116.60 33.27 119.95 25.28L119.87 25.21L119.82 25.15Q119.86 30.75 122.44 36.08Z"/><path fill="#222" d="M48.90 14.18L48.86 14.14L48.81 14.08Q50.07 18.70 50.23 21.90L50.15 21.82L50.26 21.93Q50.71 21.92 55.09 22.04L55.10 22.05L54.98 21.93Q57.63 22.07 58.01 18.60L58.10 18.69L57.92 18.51Q58.26 16.91 57.35 16.00L57.31 15.96L57.21 15.87Q56.01 15.04 54.03 14.89L54.00 14.86L54.10 14.95Q50.69 14.56 48.83 14.10ZM50.22 23.72L50.30 23.80L50.36 23.85Q50.59 29.91 48.80 35.85L48.64 35.69L48.70 35.75Q47.41 36.02 44.82 37.05L44.82 37.05L44.91 37.14Q47.60 30.50 47.25 23.04L47.42 23.20L47.36 23.14Q47.05 15.79 43.74 9.28L43.73 9.27L43.79 9.33Q48.70 12.18 55.66 12.18L55.51 12.03L55.48 12.00Q61.28 12.17 61.55 15.71L61.45 15.61L61.42 15.58Q61.47 16.17 61.40 16.77L61.46 16.84L61.45 18.05L61.31 17.91Q60.50 21.86 58.37 23.57L58.44 23.64L58.35 23.55Q57.56 24.24 56.53 24.24L56.61 24.32L54.06 24.36L54.07 24.37Q59.66 31.60 64.19 36.17L64.16 36.13L64.22 36.19Q62.00 35.42 59.07 35.08L58.99 35.00L59.00 35.01Q55.22 31.04 50.31 23.81ZM58.95 35.45L58.78 35.28L59.22 35.42L60.37 36.58L60.44 36.64Q61.00 37.16 61.65 37.77L61.64 37.77L61.71 37.84Q65.10 38.29 68.68 40.16L68.70 40.18L68.87 40.35Q61.92 33.59 56.51 26.66L56.35 26.50L58.27 26.66L58.20 26.59Q61.31 26.62 62.64 22.09L62.60 22.05L62.60 22.05Q63.38 19.94 63.38 17.23L63.21 17.06L63.33 17.19Q63.37 14.94 61.65 14.29L61.62 14.26L61.52 14.16Q61.42 13.78 60.84 13.10L60.81 13.06L60.89 13.15Q59.14 11.62 55.48 11.54L55.60 11.66L55.63 11.70Q47.67 11.46 42.99 8.45L43.09 8.56L42.90 8.37Q46.66 15.21 47.00 22.90L47.15 23.05L47.01 22.91Q47.41 30.92 44.29 37.77L44.29 37.77L44.35 37.83Q45.62 37.28 46.42 36.97L46.38 36.93L45.31 39.14L45.34 39.17Q48.14 38.20 50.80 37.70L50.73 37.63L50.71 37.61Q52.06 32.57 52.25 27.35L52.17 27.26L52.13 27.22Q55.62 32.16 58.78 35.28ZM57.54 17.37L57.70 17.53L57.64 17.47Q57.63 17.69 57.63 18.03L57.66 18.07L57.61 18.58L57.67 18.65Q57.70 19.78 57.02 20.73L56.90 20.61L57.06 20.77Q56.41 21.50 55.50 21.69L55.37 21.56L55.35 21.54Q55.15 21.61 53.55 21.65L53.59 21.68L53.61 21.70Q52.99 21.69 52.15 21.58L52.27 21.69L52.20 21.63Q52.04 20.05 51.69 17.01L51.66 16.97L51.81 17.12Q53.07 17.16 53.75 17.16L53.92 17.33L53.85 17.26Q55.77 17.35 57.71 17.54Z"/><path fill="#333" d="M160.17 10.88L160.24 10.94L160.08 10.78Q162.07 15.75 162.65 20.93L162.64 20.92L162.71 20.99Q166.35 16.78 172.25 11.95L172.23 11.93L172.16 11.86Q175.51 11.71 178.14 10.91L178.07 10.84L171.57 16.53L171.44 16.39Q168.01 19.33 165.16 22.18L165.24 22.26L165.13 22.16Q173.15 31.35 178.21 36.07L178.29 36.15L178.22 36.08Q175.06 35.10 172.74 34.94L172.78 34.98L172.88 35.09Q166.99 29.57 162.68 23.74L162.66 23.72L162.78 23.84Q162.81 30.38 160.94 35.71L161.03 35.80L161.02 35.79Q160.72 35.75 160.23 35.94L160.34 36.06L160.14 36.05L160.24 36.14Q159.99 36.13 157.44 37.04L157.57 37.17L157.40 37.00Q160.39 30.47 160.05 23.01L160.16 23.12L160.17 23.13Q159.83 15.79 156.29 9.28L156.19 9.18L156.79 9.51L157.10 9.71L157.31 9.88L157.31 9.88Q157.90 10.13 160.11 10.81ZM160.33 10.47L160.45 10.58L160.49 10.62Q158.14 9.99 155.52 8.47L155.55 8.50L155.50 8.45Q159.82 15.78 159.82 24.73L159.76 24.67L159.86 24.76Q159.89 31.80 156.92 37.85L156.77 37.71L158.82 36.85L158.86 36.90Q158.50 37.95 157.82 39.25L157.81 39.24L157.88 39.31Q160.03 38.41 161.97 37.99L161.94 37.96L162.02 37.81L162.16 37.95Q162.33 37.82 162.90 37.66L162.96 37.72L162.98 37.75Q164.54 31.73 164.66 26.94L164.63 26.91L164.58 26.86Q166.84 29.53 168.67 31.40L168.66 31.39L168.57 31.30Q169.81 32.47 172.82 35.44L172.85 35.47L172.78 35.40L172.73 35.35Q173.76 36.19 175.63 37.79L175.59 37.75L175.62 37.79Q179.63 38.63 183.09 40.34L182.95 40.21L183.06 40.32Q173.66 31.64 167.42 24.22L167.46 24.26L167.38 24.17Q171.92 20.04 180.68 11.44L180.66 11.41L180.72 11.48Q178.06 12.51 176.04 12.89L176.04 12.89L176.09 12.94Q177.23 11.87 179.55 9.85L179.69 9.99L179.52 9.82Q175.56 11.38 172.21 11.57L172.21 11.57L172.20 11.56Q169.13 13.63 164.26 18.31L164.26 18.31L164.25 18.30Q163.99 15.83 163.41 13.28L163.40 13.27L163.44 13.31Q162.23 13.13 161.24 12.79L161.25 12.80L161.13 12.67Q161.05 12.05 160.47 10.61Z"/><path d="M10 23 C99 9,91 5,194 3" stroke="#666" fill="none"/><path fill="#333" d="M78.07 28.00L78.10 28.04L77.98 27.91Q81.09 27.56 84.29 27.67L84.29 27.67L84.23 27.61Q84.32 25.19 84.32 22.79L84.20 22.67L84.36 22.84Q84.32 20.32 84.51 17.76L84.44 17.70L84.51 17.77Q83.26 19.45 78.05 27.98ZM87.94 35.32L87.84 35.22L88.01 35.39Q86.15 34.90 84.36 34.83L84.50 34.96L84.37 34.83Q84.27 32.57 84.16 30.09L84.11 30.04L84.22 30.15Q78.83 29.91 74.11 31.32L74.10 31.30L74.09 31.30Q74.14 30.74 74.33 29.75L74.45 29.86L74.45 29.86Q76.26 26.73 79.84 20.45L79.68 20.28L79.76 20.36Q82.75 15.59 86.17 11.71L86.00 11.53L86.13 11.66Q86.90 11.36 88.57 11.09L88.65 11.17L88.62 11.15Q86.84 17.70 86.84 24.74L86.71 24.61L86.69 24.59Q86.65 26.03 86.72 27.52L86.89 27.68L88.16 27.77L88.16 27.78Q88.75 27.80 89.36 27.91L89.29 27.84L89.39 27.94Q89.50 28.93 89.77 30.87L89.70 30.80L89.66 30.76Q88.52 30.57 87.03 30.38L87.00 30.35L86.95 30.30Q87.16 32.30 87.85 35.23ZM89.57 27.47L89.59 27.50L89.52 27.42Q89.50 27.51 89.31 27.51L89.28 27.49L88.88 27.47L88.79 27.38Q88.81 26.03 88.81 24.62L88.69 24.50L88.75 24.56Q88.67 18.09 90.73 12.07L90.85 12.20L90.76 12.10Q89.93 12.30 88.49 12.68L88.50 12.70L88.57 12.77Q88.73 11.93 89.18 10.53L89.33 10.67L89.21 10.56Q87.90 10.92 85.84 11.14L85.81 11.11L85.88 11.18Q82.07 15.63 76.85 24.99L76.68 24.82L78.90 21.29L78.89 21.28Q78.46 22.30 78.19 22.87L78.17 22.85L73.76 31.91L73.69 31.85Q74.37 31.73 75.51 31.35L75.44 31.27L75.39 31.60L75.27 31.48Q75.15 32.16 74.85 33.42L74.92 33.50L74.86 33.43Q79.12 32.25 83.95 32.44L83.87 32.36L83.87 32.35Q83.85 33.25 84.04 35.23L84.02 35.21L84.11 35.30Q85.18 35.30 86.24 35.42L86.20 35.37L86.29 35.46Q86.40 36.11 86.67 37.48L86.63 37.44L86.58 37.39Q88.57 37.70 91.57 38.61L91.61 38.65L91.64 38.68Q90.50 36.40 89.58 33.12L89.66 33.20L91.16 33.71L91.21 33.76Q91.81 33.90 92.49 34.24L92.52 34.26L92.54 34.29Q91.61 31.64 91.45 29.97L91.50 30.01L91.57 30.08Q90.87 29.80 89.73 29.57L89.91 29.76L89.87 29.72Q89.52 28.30 89.52 27.42ZM81.58 27.33L81.55 27.30L81.50 27.25Q82.40 26.09 83.96 23.54L83.85 23.42L83.86 23.44Q83.85 24.38 83.81 25.33L83.85 25.37L83.94 25.46Q83.97 26.48 84.01 27.43L83.84 27.27L84.01 27.43Q83.27 27.23 82.70 27.23L82.86 27.38L82.85 27.38Q82.15 27.28 81.54 27.28Z"/><path fill="#222" d="M33.95 35.33L34.00 35.38L34.10 35.48Q30.99 31.46 28.36 22.81L28.49 22.94L28.33 22.78Q27.77 20.75 26.98 18.61L26.85 18.49L24.14 27.43L24.02 27.31Q22.33 32.36 19.93 35.59L19.84 35.50L19.87 35.53Q18.91 35.48 17.27 35.64L17.35 35.71L17.30 35.66Q17.57 34.64 17.57 33.38L17.54 33.35L17.52 33.34Q17.56 27.35 14.82 21.23L14.74 21.15L14.72 21.13Q11.68 14.32 5.82 9.34L5.76 9.28L5.73 9.25Q7.98 10.04 10.34 10.58L10.28 10.53L10.14 10.39Q18.91 18.92 20.20 29.89L20.28 29.97L20.19 29.87Q21.95 26.68 23.39 21.31L23.36 21.28L23.28 21.20Q25.35 13.79 25.85 12.38L25.84 12.37L28.01 12.30L27.94 12.24Q28.74 14.36 29.38 16.68L29.49 16.79L30.61 21.10L30.65 21.14Q32.16 26.54 33.57 29.78L33.66 29.87L33.64 29.84Q35.21 18.13 43.13 10.79L43.10 10.76L43.20 10.85Q44.62 10.41 47.59 9.76L47.74 9.91L47.59 9.76Q42.39 14.20 39.35 20.33L39.28 20.25L39.33 20.31Q36.22 26.53 36.22 33.31L36.27 33.35L36.17 33.25Q36.21 34.40 36.29 35.54L36.21 35.46L35.12 35.40L35.10 35.38Q34.62 35.43 34.05 35.43ZM40.30 38.33L40.16 38.20L40.19 38.23Q38.89 34.60 39.00 30.72L39.05 30.76L39.10 30.81Q39.46 19.29 48.82 11.03L48.89 11.10L48.71 10.92Q47.94 11.34 46.00 11.87L45.98 11.84L45.89 11.76Q46.81 10.88 48.71 9.10L48.76 9.14L48.79 9.18Q46.09 9.90 43.16 10.39L43.19 10.43L43.16 10.39Q35.59 17.44 33.68 26.92L33.69 26.92L33.73 26.97Q33.16 25.33 30.31 13.87L30.37 13.93L30.31 13.88Q29.84 13.90 28.89 13.90L28.88 13.89L28.69 12.94L28.69 12.94Q28.49 12.32 28.26 11.83L28.36 11.93L25.47 11.93L25.42 11.88Q24.68 14.42 23.41 19.54L23.38 19.51L23.24 19.37Q22.13 24.65 21.14 27.13L21.12 27.11L20.97 26.96Q19.54 19.21 13.98 12.89L13.84 12.75L14.00 12.91Q13.34 12.67 12.39 12.48L12.54 12.63L12.56 12.65Q11.76 11.73 10.19 10.09L10.12 10.02L10.14 10.04Q6.90 9.39 4.73 8.59L4.73 8.59L4.60 8.46Q10.34 13.21 13.62 19.42L13.60 19.40L13.51 19.31Q17.09 26.05 17.09 33.05L17.07 33.04L17.15 33.11Q16.97 34.50 16.78 36.10L16.85 36.16L16.90 36.22Q17.04 36.13 17.50 36.03L17.49 36.03L17.45 35.99Q18.09 36.07 18.31 36.07L18.21 35.96L18.16 36.95L18.20 36.98Q18.20 37.44 18.28 37.97L18.35 38.04L18.26 37.95Q19.42 37.90 21.70 37.74L21.65 37.69L21.81 37.85Q25.36 32.38 28.10 22.98L28.10 22.98L28.13 23.00Q30.88 31.77 33.85 35.73L33.90 35.78L33.83 35.71Q34.30 35.72 35.13 35.83L35.16 35.86L35.23 35.93Q36.03 36.92 37.10 37.99L37.04 37.93L37.11 38.00Q37.76 37.93 40.16 38.19Z"/><path fill="#333" d="M142.27 22.10L142.30 22.13L142.31 22.14Q143.23 22.26 144.64 22.11L144.54 22.01L144.57 22.04Q144.42 22.57 144.42 23.22L144.57 23.37L144.43 24.48L144.57 24.63Q143.75 24.64 142.91 24.72L142.77 24.58L142.93 24.74Q141.98 24.67 141.14 24.63L141.08 24.56L141.14 24.62Q138.24 30.75 134.82 35.35L134.83 35.37L134.95 35.48Q132.35 36.05 131.06 36.66L130.99 36.59L131.08 36.68Q135.22 31.00 138.26 24.72L138.28 24.73L135.63 24.71L135.68 24.76Q135.68 23.43 135.57 22.10L135.45 21.98L135.39 21.92Q137.48 22.25 139.53 22.25L139.46 22.18L141.40 18.52L141.43 18.55Q142.25 16.48 143.46 14.88L143.50 14.92L143.52 14.93Q142.07 15.20 140.47 15.20L140.35 15.08L140.39 15.11Q134.30 15.12 130.53 12.91L130.47 12.85L129.89 11.20L129.88 11.19Q129.51 10.32 129.13 9.45L129.15 9.48L129.15 9.48Q133.60 12.21 139.31 12.44L139.22 12.35L139.26 12.38Q144.35 12.56 149.49 10.59L149.41 10.51L149.53 10.62Q149.38 11.09 148.89 11.97L148.73 11.81L148.82 11.89Q145.11 16.56 142.26 22.08ZM150.48 13.33L150.42 13.27L151.46 11.30L151.37 11.21Q150.36 11.65 148.69 12.38L148.69 12.37L148.96 12.15L148.99 12.19Q149.04 11.96 149.15 11.85L149.14 11.84L149.12 11.82Q149.56 11.19 150.28 9.85L150.37 9.94L150.23 9.80Q144.87 12.06 139.12 11.83L139.16 11.87L139.31 12.02Q133.16 11.62 128.41 8.65L128.43 8.68L128.46 8.71Q129.44 10.52 130.28 13.19L130.25 13.16L130.23 13.14Q131.39 13.84 132.19 14.15L132.13 14.09L132.22 14.18Q132.44 14.59 132.89 16.45L132.82 16.38L132.86 16.42Q135.96 17.61 141.48 17.46L141.52 17.50L141.54 17.52Q141.29 18.15 139.31 21.92L139.26 21.87L139.29 21.90Q137.08 21.74 135.10 21.55L135.23 21.68L135.23 21.69Q135.29 22.51 135.29 23.38L135.26 23.35L135.18 24.98L136.87 25.00L136.95 26.49L136.97 26.51Q132.94 33.78 130.16 37.36L130.27 37.47L130.20 37.39Q131.92 36.76 133.56 36.26L133.54 36.25L133.55 36.25Q132.72 37.02 131.35 38.73L131.33 38.72L131.44 38.83Q134.52 37.64 136.95 37.42L136.95 37.41L137.06 37.52Q139.87 33.64 143.00 26.86L143.13 26.99L146.40 27.03L146.45 27.08Q146.47 26.26 146.47 25.35L146.33 25.21L146.51 23.59L146.37 23.46Q146.15 23.50 145.60 23.54L145.58 23.52L145.61 23.56Q145.10 23.64 144.84 23.64L144.76 23.56L144.74 23.54Q144.74 23.42 144.77 23.27L144.75 23.25L144.78 23.00L144.82 23.05Q147.29 17.86 150.37 13.22Z"/></svg>