<svg xmlns="http://www.w3.org/2000/svg" width="200" height="40" viewBox="0,0,200,40"><path fill="#222" d="M50.85 25.63L50.89 25.66L50.88 25.65Q50.94 25.71 54.33 25.67L54.26 25.61L54.24 25.58Q56.44 25.50 57.50 25.54L57.49 25.53L57.58 25.61Q56.49 22.70 54.05 17.06L54.11 17.12L54.16 17.17Q53.48 18.47 52.43 21.33L52.57 21.46L52.56 21.45Q51.45 24.24 50.88 25.65ZM58.66 28.06L58.61 28.02L58.70 28.10Q56.51 28.17 54.31 28.20L54.29 28.19L54.13 28.02Q51.93 28.11 49.64 28.30L49.60 28.26L49.72 28.38Q48.08 31.68 44.84 35.87L44.95 35.98L44.92 35.95Q42.40 36.63 41.03 37.12L40.99 37.08L40.88 36.97Q46.15 31.47 50.83 18.10L50.72 18.00L50.80 18.08Q51.98 14.57 53.35 11.33L53.31 11.29L53.40 11.38Q53.65 11.33 53.99 11.33L54.04 11.38L54.83 11.44L54.70 11.32Q55.43 12.65 60.26 24.30L60.28 24.32L60.42 24.46Q63.52 32.13 67.52 36.28L67.56 36.32L67.52 36.28Q67.19 36.33 63.30 35.45L63.17 35.32L63.20 35.34Q60.78 32.36 58.80 28.21ZM63.08 35.65L63.08 35.64L63.65 35.72L63.67 35.74Q64.03 35.87 64.34 35.99L64.35 36.00L64.36 36.01Q64.58 36.27 66.41 38.29L66.47 38.35L66.39 38.27Q70.10 39.24 72.50 40.27L72.43 40.20L72.47 40.24Q67.05 35.77 63.06 27.78L63.02 27.74L63.08 27.80Q61.36 24.41 59.92 20.45L59.88 20.41L57.22 13.00L57.27 13.04Q56.81 12.93 56.59 12.93L56.64 12.98L56.08 12.96L56.18 13.06Q55.79 12.36 55.07 10.99L55.00 10.93L55.01 10.94Q54.63 11.09 54.17 11.05L54.02 10.90L54.06 10.94Q53.73 11.03 53.20 11.03L53.11 10.94L53.18 11.01Q51.69 14.86 47.81 25.02L47.81 25.02L47.72 24.93Q44.76 33.05 40.11 37.84L39.98 37.71L39.99 37.72Q41.10 37.38 43.12 36.77L43.05 36.70L43.08 36.73Q42.28 37.57 40.72 39.36L40.84 39.48L40.85 39.49Q42.47 38.75 46.39 37.99L46.45 38.05L46.38 37.98Q49.85 33.68 51.41 30.45L51.45 30.49L51.34 30.37Q53.21 30.39 55.54 30.42L55.42 30.31L55.45 30.34Q58.20 30.39 59.57 30.46L59.52 30.41L59.57 30.46Q60.83 32.82 63.19 35.75ZM55.40 21.00L55.47 21.07L55.45 21.04Q56.40 23.21 57.16 25.31L56.98 25.13L53.79 25.25L53.71 25.17Q54.46 23.90 55.53 21.13Z"/><path fill="#111" d="M135.83 14.42L135.87 14.46L135.82 14.41Q136.59 18.57 136.74 22.14L136.80 22.20L136.77 22.18Q137.88 22.26 138.95 22.26L138.86 22.18L141.20 22.31L141.20 22.31Q142.23 22.27 143.11 20.86L143.13 20.88L143.13 20.89Q143.82 19.67 143.93 18.49L143.79 18.35L143.95 18.51Q144.18 15.35 139.96 14.86L139.97 14.87L140.04 14.93Q138.42 14.96 135.79 14.38ZM136.80 24.94L136.72 24.87L136.80 24.95Q136.68 31.11 135.54 35.53L135.64 35.62L135.64 35.63Q134.16 36.01 131.84 37.08L131.77 37.01L131.89 37.13Q134.16 30.38 133.90 23.11L133.86 23.07L133.85 23.06Q133.53 15.66 130.75 9.23L130.85 9.33L130.86 9.34Q134.89 12.00 141.14 12.00L141.30 12.16L141.22 12.08Q147.34 12.15 147.49 15.61L147.49 15.61L147.52 15.64Q147.53 18.01 146.54 20.67L146.49 20.63L146.52 20.66Q146.02 21.68 145.06 22.89L145.24 23.07L145.11 22.93Q143.90 24.66 141.35 24.93L141.38 24.96L141.30 24.88Q138.96 24.82 136.71 24.86ZM142.85 27.11L142.88 27.14L142.89 27.15Q147.01 27.35 148.26 22.55L148.36 22.65L148.32 22.60Q149.37 19.05 149.21 17.03L149.09 16.91L149.05 16.86Q149.03 15.43 148.26 14.44L148.27 14.45L148.22 14.40Q147.87 14.05 147.37 13.82L147.46 13.91L147.33 13.78Q147.50 13.79 146.89 13.03L146.85 12.99L146.87 13.01Q145.23 11.60 141.27 11.60L141.36 11.69L141.38 11.71Q134.31 11.53 130.09 8.37L130.08 8.37L130.08 8.37Q133.42 15.63 133.69 23.09L133.69 23.10L133.56 22.96Q133.81 30.60 131.15 37.68L131.27 37.80L131.16 37.69Q132.25 37.07 133.24 36.69L133.38 36.83L132.91 37.88L132.91 37.88Q132.69 38.42 132.42 38.99L132.37 38.94L132.43 39.00Q134.97 38.07 137.86 37.54L137.81 37.49L137.74 37.42Q138.61 31.94 138.69 27.22L138.61 27.14L138.75 27.28Q139.79 27.13 140.78 27.13L140.81 27.17L140.77 27.13Q142.06 27.08 142.86 27.12ZM142.05 17.33L141.89 17.17L142.01 17.29Q142.42 17.20 143.41 17.43L143.38 17.40L143.44 17.47Q143.62 17.75 143.65 18.06L143.56 17.96L143.52 17.92Q143.59 18.22 143.52 18.49L143.53 18.50L143.63 18.60Q143.41 19.72 142.69 20.59L142.77 20.67L142.65 20.55Q142.24 21.78 141.21 21.97L141.17 21.93L141.07 21.83Q140.41 21.89 138.77 21.89L138.67 21.79L138.73 21.85Q138.74 19.61 138.51 17.25L138.54 17.28L140.21 17.28L140.21 17.28Q141.08 17.31 141.95 17.23Z"/><path fill="#111" d="M120.92 18.11L120.91 18.09L120.83 18.02Q119.12 20.84 116.46 26.47L116.47 26.49L114.38 30.64L114.40 30.66Q113.50 32.54 112.17 34.79L112.10 34.72L112.23 34.85Q112.56 34.72 110.89 34.76L110.91 34.79L111.00 34.87Q110.88 34.76 109.63 34.76L109.79 34.92L109.62 34.75Q109.00 33.37 106.07 26.22L106.00 26.14L106.14 26.29Q103.89 20.84 101.80 17.83L101.78 17.81L101.83 17.86Q102.52 20.88 102.52 24.04L102.50 24.02L102.54 24.06Q102.46 30.48 99.49 36.04L99.52 36.08L99.56 36.11Q98.17 36.40 95.81 37.12L95.94 37.25L95.93 37.24Q99.63 31.57 99.63 24.34L99.51 24.22L99.63 24.35Q99.69 15.45 94.28 8.49L94.15 8.35L94.17 8.38Q95.89 9.18 98.25 9.86L98.20 9.81L98.26 9.88Q105.20 16.52 111.29 29.84L111.34 29.89L111.34 29.89Q114.89 22.93 117.10 19.43L117.08 19.40L116.94 19.27Q120.54 13.50 124.50 10.03L124.63 10.16L124.51 10.05Q125.90 9.96 128.26 9.20L128.09 9.03L128.26 9.19Q123.12 15.67 123.12 24.27L123.09 24.24L123.26 24.41Q123.11 30.92 126.54 36.44L126.60 36.50L126.61 36.52Q125.27 36.20 122.53 35.59L122.47 35.53L122.64 35.70Q120.15 30.77 120.15 24.80L120.11 24.76L120.24 24.89Q120.18 21.40 120.86 18.05ZM122.36 36.00L122.31 35.94L122.29 35.92Q122.97 36.03 124.42 36.30L124.40 36.28L124.55 36.43Q124.90 37.08 125.85 38.57L125.92 38.64L125.85 38.57Q127.95 38.96 131.42 40.18L131.42 40.18L131.46 40.22Q125.16 33.84 125.16 24.02L125.27 24.14L125.12 23.98Q125.21 16.34 129.58 10.21L129.53 10.16L127.33 10.85L127.37 10.89Q128.36 9.33 129.00 8.45L129.12 8.56L129.08 8.53Q127.26 9.22 124.64 9.76L124.49 9.61L124.63 9.75Q117.81 15.79 111.75 28.39L111.78 28.43L111.76 28.40Q106.57 17.42 101.62 12.17L101.58 12.13L101.65 12.20Q101.24 12.09 100.67 11.98L100.76 12.07L99.49 10.72L99.53 10.77Q98.94 10.10 98.26 9.49L98.22 9.46L98.19 9.43Q95.07 8.36 93.28 7.63L93.30 7.66L93.39 7.75Q99.40 14.98 99.40 24.38L99.42 24.40L99.24 24.22Q99.35 31.94 95.20 37.81L95.24 37.85L95.27 37.88Q95.93 37.62 97.23 37.20L97.09 37.06L97.11 37.08Q96.99 37.35 95.58 39.44L95.68 39.54L95.71 39.57Q97.51 39.08 101.01 38.32L101.00 38.31L100.83 38.14Q104.58 31.12 104.39 23.35L104.53 23.50L104.44 23.40Q105.91 27.35 109.37 35.23L109.43 35.29L109.43 35.29Q109.78 35.33 110.00 35.33L109.93 35.25L110.44 35.23L110.48 35.27Q110.91 35.93 111.71 37.22L111.72 37.23L111.66 37.17Q113.33 37.21 113.33 37.21L113.29 37.16L113.31 37.18Q114.34 37.19 114.99 37.26L114.92 37.19L114.93 37.20Q116.54 33.21 119.89 25.22L119.96 25.30L119.89 25.22Q119.83 30.73 122.42 36.06Z"/><path fill="#111" d="M20.54 14.10L20.57 14.13L20.65 14.21Q21.70 18.62 21.86 21.81L21.88 21.84L21.84 21.79Q22.44 21.94 26.82 22.06L26.74 21.97L26.87 22.10Q29.33 22.06 29.72 18.59L29.63 18.51L29.73 18.60Q30.00 16.94 29.09 16.02L28.94 15.88L28.99 15.93Q27.65 14.96 25.67 14.81L25.73 14.87L25.65 14.79Q22.42 14.57 20.55 14.11ZM22.06 23.85L22.05 23.83L22.12 23.90Q22.20 29.81 20.41 35.75L20.35 35.68L20.48 35.82Q19.12 36.01 16.53 37.04L16.65 37.17L16.62 37.13Q19.41 30.60 19.07 23.13L18.97 23.03L19.10 23.17Q18.82 15.85 15.51 9.34L15.50 9.33L15.37 9.20Q20.25 12.02 27.22 12.02L27.26 12.07L27.18 11.98Q32.85 12.02 33.12 15.56L33.21 15.66L33.16 15.61Q33.32 16.30 33.25 16.91L33.17 16.83L33.03 17.91L33.20 18.08Q32.18 21.82 30.05 23.53L30.11 23.60L30.06 23.54Q29.25 24.22 28.22 24.22L28.26 24.26L25.66 24.25L25.74 24.33Q31.22 31.44 35.75 36.01L35.85 36.11L35.83 36.09Q33.68 35.39 30.75 35.04L30.67 34.96L30.64 34.93Q26.93 31.03 22.02 23.80ZM30.62 35.41L30.54 35.33L30.86 35.35L32.22 36.70L32.23 36.72Q32.71 37.16 33.36 37.77L33.41 37.82L33.35 37.76Q36.89 38.37 40.47 40.24L40.46 40.23L40.46 40.22Q33.52 33.48 28.12 26.55L28.22 26.65L30.00 26.69L29.91 26.59Q32.94 26.54 34.27 22.01L34.38 22.11L34.26 22.00Q35.06 19.91 35.06 17.20L35.07 17.21L35.03 17.17Q34.99 14.84 33.27 14.19L33.22 14.15L33.39 14.31Q33.13 13.79 32.56 13.10L32.55 13.09L32.53 13.07Q30.90 11.67 27.25 11.60L27.28 11.63L27.18 11.52Q19.44 11.52 14.76 8.51L14.79 8.55L14.74 8.49Q18.49 15.32 18.83 23.01L18.84 23.02L18.88 23.06Q19.10 30.90 15.98 37.75L15.93 37.70L15.99 37.76Q17.27 37.21 18.07 36.90L18.15 36.99L17.13 39.24L16.98 39.10Q19.82 38.16 22.48 37.67L22.48 37.66L22.54 37.72Q23.67 32.46 23.86 27.24L24.01 27.39L23.88 27.27Q27.40 32.23 30.56 35.35ZM29.34 17.46L29.40 17.52L29.39 17.51Q29.28 17.62 29.28 17.96L29.36 18.05L29.39 18.65L29.35 18.61Q29.43 19.79 28.74 20.74L28.64 20.64L28.72 20.72Q28.14 21.51 27.23 21.70L27.11 21.59L27.14 21.61Q26.91 21.65 25.31 21.69L25.31 21.68L25.35 21.73Q24.71 21.69 23.87 21.58L23.84 21.55L23.88 21.59Q23.76 20.07 23.42 17.02L23.47 17.07L23.55 17.15Q24.97 17.35 25.66 17.35L25.47 17.17L25.62 17.32Q27.39 17.26 29.33 17.45Z"/><path d="M7 7 C110 38,95 23,197 11" stroke="#666" fill="none"/><path fill="#333" d="M79.19 25.68L79.08 25.57L79.20 25.69Q79.06 25.55 82.45 25.51L82.51 25.57L82.56 25.62Q84.87 25.65 85.94 25.69L85.94 25.69L85.86 25.61Q84.86 22.78 82.42 17.15L82.45 17.17L82.48 17.20Q81.82 18.53 80.78 21.38L80.74 21.35L80.67 21.27Q79.82 24.33 79.25 25.73ZM87.07 28.19L86.91 28.03L86.93 28.05Q84.64 28.00 82.43 28.04L82.58 28.19L82.42 28.03Q80.26 28.16 77.98 28.35L78.06 28.43L77.92 28.29Q76.48 31.80 73.25 35.99L73.24 35.98L73.17 35.91Q70.55 36.49 69.18 36.98L69.24 37.04L69.25 37.05Q74.37 31.41 79.06 18.04L78.98 17.97L79.05 18.03Q80.30 14.60 81.67 11.37L81.62 11.32L81.75 11.45Q82.01 11.41 82.36 11.41L82.38 11.43L82.98 11.31L82.99 11.32Q83.82 12.75 88.65 24.40L88.65 24.40L88.64 24.39Q91.83 32.15 95.83 36.30L95.97 36.45L95.93 36.40Q95.48 36.33 91.59 35.46L91.43 35.29L91.59 35.45Q88.96 32.25 86.98 28.10ZM91.45 35.73L91.39 35.67L91.95 35.73L92.04 35.82Q92.29 35.84 92.59 35.96L92.49 35.86L92.64 36.00Q92.90 36.30 94.73 38.32L94.78 38.38L94.69 38.28Q98.44 39.29 100.84 40.32L100.79 40.27L100.70 40.18Q95.28 35.72 91.29 27.72L91.21 27.65L91.33 27.76Q89.74 24.50 88.29 20.54L88.12 20.37L85.51 13.00L85.46 12.95Q85.20 13.03 84.97 13.03L85.06 13.12L84.48 13.08L84.35 12.94Q83.97 12.26 83.25 10.89L83.43 11.08L83.41 11.05Q82.86 11.04 82.40 11.00L82.46 11.06L82.31 10.91Q81.86 10.88 81.33 10.88L81.38 10.93L81.44 10.98Q79.94 14.82 76.06 24.98L76.08 25.00L76.20 25.12Q72.91 32.91 68.27 37.71L68.31 37.76L68.37 37.81Q69.38 37.38 71.40 36.77L71.40 36.77L71.34 36.71Q70.60 37.61 69.04 39.40L69.11 39.47L69.12 39.48Q70.69 38.69 74.61 37.93L74.73 38.04L74.68 38.00Q78.21 33.76 79.77 30.52L79.59 30.34L79.71 30.46Q81.48 30.36 83.80 30.40L83.75 30.35L83.78 30.39Q86.39 30.29 87.76 30.36L87.90 30.51L87.82 30.42Q88.99 32.70 91.35 35.63ZM83.77 21.08L83.81 21.13L83.68 20.99Q84.57 23.10 85.33 25.19L85.44 25.30L81.97 25.14L82.10 25.27Q82.74 23.90 83.81 21.12Z"/><path fill="#444" d="M162.05 14.18L161.98 14.11L162.14 14.27Q163.12 18.60 163.27 21.80L163.24 21.77L163.26 21.79Q163.87 21.95 168.25 22.06L168.21 22.02L168.21 22.01Q170.72 22.01 171.10 18.55L171.10 18.55L171.21 18.66Q171.41 16.92 170.49 16.00L170.35 15.86L170.34 15.85Q169.13 15.02 167.15 14.86L167.12 14.84L167.19 14.91Q163.83 14.55 161.96 14.09ZM163.37 23.72L163.38 23.74L163.36 23.72Q163.68 29.86 161.90 35.80L161.95 35.86L161.87 35.78Q160.61 36.08 158.02 37.10L158.05 37.14L157.91 37.00Q160.83 30.59 160.49 23.13L160.51 23.15L160.44 23.08Q160.25 15.85 156.94 9.34L156.90 9.30L156.91 9.31Q161.80 12.14 168.76 12.14L168.71 12.09L168.69 12.07Q174.35 12.09 174.62 15.63L174.69 15.70L174.70 15.72Q174.65 16.20 174.57 16.81L174.57 16.80L174.52 17.97L174.53 17.99Q173.76 21.97 171.62 23.68L171.57 23.63L171.61 23.66Q170.70 24.24 169.68 24.24L169.69 24.26L167.22 24.38L167.22 24.38Q172.78 31.58 177.31 36.15L177.18 36.02L177.23 36.07Q175.02 35.29 172.08 34.95L172.11 34.98L172.19 35.05Q168.27 30.94 163.36 23.71ZM172.05 35.41L172.09 35.45L172.23 35.29L173.57 36.63L173.58 36.64Q174.08 37.10 174.73 37.71L174.78 37.76L174.80 37.78Q178.26 38.31 181.83 40.17L181.82 40.16L181.95 40.29Q174.91 33.44 169.50 26.51L169.51 26.51L171.38 26.63L171.32 26.57Q174.40 26.57 175.73 22.04L175.74 22.05L175.76 22.07Q176.47 19.89 176.47 17.19L176.40 17.11L176.47 17.18Q176.52 14.95 174.80 14.30L174.76 14.26L174.64 14.13Q174.61 13.83 174.03 13.15L174.02 13.13L174.10 13.21Q172.28 11.62 168.62 11.54L168.72 11.64L168.70 11.62Q160.82 11.47 156.14 8.46L156.21 8.53L156.17 8.50Q159.97 15.37 160.31 23.06L160.21 22.97L160.26 23.01Q160.61 30.98 157.49 37.83L157.41 37.75L157.50 37.84Q158.64 37.15 159.44 36.85L159.53 36.94L158.46 39.15L158.47 39.15Q161.21 38.12 163.87 37.63L163.95 37.71L163.99 37.75Q165.23 32.59 165.42 27.37L165.30 27.26L165.33 27.28Q168.92 32.32 172.08 35.44ZM170.76 17.45L170.73 17.41L170.81 17.50Q170.79 17.71 170.79 18.05L170.71 17.97L170.71 18.54L170.72 18.55Q170.87 19.80 170.18 20.75L170.15 20.72L170.02 20.59Q169.49 21.43 168.57 21.62L168.64 21.69L168.55 21.60Q168.27 21.58 166.67 21.62L166.68 21.63L166.67 21.62Q166.14 21.70 165.30 21.59L165.34 21.62L165.45 21.74Q165.18 20.06 164.84 17.01L164.95 17.12L164.84 17.01Q166.40 17.35 167.08 17.35L166.91 17.17L166.99 17.25Q168.76 17.20 170.70 17.39Z"/><path d="M12 31 C92 22,93 16,182 5" stroke="#333" fill="none"/></svg>